<?xml version="1.0" encoding="iso-8859-1"?>
<!-- Uploaded to: SVG Repo, www.svgrepo.com, Generator: SVG Repo Mixer Tools -->
<svg height="800px" width="800px" version="1.1" id="Layer_1" xmlns="http://www.w3.org/2000/svg" xmlns:xlink="http://www.w3.org/1999/xlink" 
	 viewBox="0 0 511.999 511.999" xml:space="preserve">
<g>
	<path style="fill:#FFB655;" d="M256,288.911L143.982,176.894l-18.441-18.441l-17.743-17.743
		c-9.436,20.604-14.707,43.501-14.707,67.607v202.834h23.273h23.273h69.818H256h46.545h69.818h5.876l-5.876-5.876L256,288.911z"/>
	<path style="fill:#FFB655;" d="M279.272,47.077c-7.602-1.092-15.371-1.669-23.273-1.669s-15.67,0.577-23.273,1.669
		c-39.229,5.637-73.986,25.297-99.01,53.727l16.438,16.438l16.558,16.556L256,223.085l116.364,116.365l23.273,23.273l23.273,23.273
		v-177.68C418.909,126.389,358.116,58.404,279.272,47.077z"/>
</g>
<path style="fill:#FF0C38;" d="M107.797,140.709l17.745,17.743l18.441,18.441l228.38,228.381l5.876,5.876l17.397,17.397l5.876,5.876
	l13.247,13.247l10.026,10.026l47.487,47.486c4.544,4.544,10.499,6.817,16.455,6.817c5.956,0,11.913-2.273,16.455-6.817
	c9.089-9.089,9.089-23.824,0-32.912l-86.274-86.274l-23.273-23.273l-23.273-23.273L166.711,133.799l-16.556-16.556l-16.438-16.438
	L39.729,6.817c-9.087-9.089-23.824-9.089-32.912,0c-9.089,9.087-9.089,23.822,0,32.912L107.797,140.709z"/>
<path style="fill:#806749;" d="M279.272,47.077V31.03c0-12.853-10.42-23.273-23.273-23.273c-12.853,0-23.273,10.42-23.273,23.273
	v16.047c7.602-1.092,15.371-1.669,23.273-1.669S271.67,45.985,279.272,47.077z"/>
<path style="fill:#A78966;" d="M401.512,434.423l-5.876-5.876l-17.397-17.397h-5.876h-69.818H256h-46.545h-69.818h-23.273H93.091
	h-7.758c-12.853,0-23.273,10.42-23.273,23.273c0,12.853,10.42,23.273,23.273,23.273h31.03h73.821
	c9.607,27.086,35.475,46.544,65.815,46.544s56.208-19.458,65.815-46.544h73.821h29.148l-10.026-10.026L401.512,434.423z"/>
<g>
	<path style="fill:#EE8700;" d="M139.636,411.151h69.818H256V288.911L143.982,176.894l-18.441-18.441l-17.743-17.743
		c-9.436,20.604-14.707,43.501-14.707,67.607v202.834h23.273H139.636z"/>
	<path style="fill:#EE8700;" d="M166.711,133.799L256,223.085V45.407c-7.902,0-15.67,0.577-23.273,1.669
		c-39.229,5.637-73.986,25.297-99.01,53.727l16.438,16.438L166.711,133.799z"/>
</g>
<path style="fill:#806749;" d="M209.454,411.151h-69.818h-23.273H93.091h-7.758c-12.853,0-23.273,10.42-23.273,23.273
	c0,12.853,10.42,23.273,23.273,23.273h31.03h73.821c9.607,27.086,35.475,46.544,65.815,46.544v-93.089H209.454z"/>
</svg>