<?xml version="1.0" encoding="iso-8859-1"?>
<!-- Uploaded to: SVG Repo, www.svgrepo.com, Generator: SVG Repo Mixer Tools -->
<svg height="800px" width="800px" version="1.1" id="Layer_1" xmlns="http://www.w3.org/2000/svg" xmlns:xlink="http://www.w3.org/1999/xlink" 
	 viewBox="0 0 512 512" xml:space="preserve">
<path style="fill:#A78966;" d="M478.84,109.501c-5.863-4.408-13.461-5.795-20.506-3.741c-12.921,3.77-26.103,5.682-39.179,5.682
	c-37.536,0-74.709-10.997-101.987-30.169c-24.083-16.93-37.897-38.07-37.897-58c0-12.851-10.418-23.271-23.27-23.273h-0.003
	c-12.851,0-23.273,10.42-23.273,23.273c0,8.72-2.644,17.67-7.635,26.399c-0.714,1.247-1.474,2.489-2.282,3.725
	c-4.847,7.419-11.388,14.628-19.436,21.34c-2.683,2.237-5.533,4.419-8.543,6.535c-3.41,2.397-6.974,4.665-10.673,6.802
	c-5.55,3.204-11.407,6.107-17.506,8.692c-2.032,0.861-4.093,1.688-6.178,2.478c-20.848,7.903-44.165,12.198-67.627,12.198
	c-13.076,0-26.258-1.911-39.179-5.682c-0.678-0.199-1.365-0.335-2.053-0.47c-0.301-0.059-0.599-0.124-0.901-0.171
	c-6.16-0.954-12.501,0.583-17.549,4.381c-1.776,1.336-3.3,2.923-4.603,4.661c-1.922,2.563-3.33,5.481-4.067,8.608
	c-0.411,1.749-0.624,3.556-0.619,5.39c0.129,50.28,9.182,96.205,22.059,136.169c0.991,3.074,2.005,6.113,3.038,9.115
	c18.603,54.052,43.787,96.438,62.009,122.894c14.161,20.558,29.383,39.351,44.995,55.63c4.684,4.884,9.404,9.54,14.141,13.951
	c4.737,4.411,9.491,8.575,14.243,12.473c1.752,1.437,3.582,2.9,5.483,4.372c2.534,1.963,5.188,3.939,7.945,5.89
	c0.968,0.686,1.953,1.365,2.945,2.042c2.101,1.432,4.251,2.841,6.445,4.211c1.196,0.748,2.403,1.486,3.624,2.206
	c1.505,0.889,3.029,1.755,4.565,2.594c6.147,3.357,12.525,6.277,18.958,8.428c1.607,0.537,3.219,1.027,4.831,1.463
	c0.807,0.219,1.612,0.424,2.419,0.614c4.838,1.145,9.667,1.787,14.42,1.787h0.006c25.346-0.003,52.945-18.275,71.637-33.603
	c25.349-20.79,50.724-49.164,73.382-82.058c32.397-47.031,86.793-144.413,87.107-268.179
	C488.143,120.824,484.703,113.909,478.84,109.501z"/>
<path style="fill:#B6E892;" d="M346.507,205.691c-9.087-9.087-23.823-9.087-32.912,0l-57.594,57.595l-24.685,24.683l-32.909-32.911
	c-9.087-9.089-23.822-9.089-32.912-0.002c-9.087,9.087-9.09,23.822-0.003,32.912l49.363,49.369h0.003v0.002
	c2.839,2.841,6.231,4.793,9.83,5.857c2.158,0.639,4.391,0.959,6.625,0.959c4.17,0,8.324-1.137,12.009-3.364
	c0.588-0.355,1.154-0.763,1.718-1.173c0.382-0.285,0.76-0.573,1.131-0.877c0.546-0.447,1.091-0.892,1.6-1.401
	c0.006-0.006,0.009-0.012,0.016-0.016l8.215-8.215l90.506-90.508C355.594,229.516,355.594,214.779,346.507,205.691z"/>
<path style="fill:#7ED63E;" d="M256.001,263.286l-24.685,24.683l-32.909-32.911c-9.087-9.089-23.822-9.089-32.912-0.002
	c-9.087,9.087-9.09,23.824-0.003,32.912l49.363,49.369h0.003v0.002c2.839,2.841,6.231,4.793,9.83,5.857
	c2.158,0.639,4.391,0.959,6.625,0.959c4.17,0,8.324-1.137,12.009-3.364c0.588-0.355,1.154-0.763,1.718-1.173
	c0.382-0.285,0.76-0.573,1.131-0.877c0.546-0.447,1.091-0.892,1.6-1.401c0.006-0.006,0.009-0.012,0.016-0.016l8.215-8.215V263.286z"
	/>
<path style="fill:#806749;" d="M184.361,478.394C203.052,493.725,230.655,512,255.998,512h0.003V329.112l-8.215,8.215
	c-0.006,0.003-0.009,0.009-0.016,0.016c-0.506,0.506-1.052,0.951-1.593,1.396c0,0.002-0.003,0.003-0.006,0.005
	c-0.369,0.304-0.745,0.599-1.131,0.877c-0.56,0.419-1.128,0.816-1.718,1.173c-3.685,2.226-7.84,3.364-12.009,3.364
	c-2.233,0-4.467-0.32-6.625-0.959c-3.6-1.066-6.991-3.016-9.83-5.857v-0.002h-0.003l-49.363-49.369
	c-9.087-9.089-9.084-23.824,0.003-32.912c9.09-9.087,23.824-9.087,32.912,0.002l32.909,32.911l24.685-24.685V0h-0.003
	c-12.851,0-23.273,10.42-23.273,23.273c0,19.931-13.812,41.07-37.894,58c-27.276,19.174-64.445,30.169-101.984,30.169
	c-13.076,0-26.258-1.911-39.179-5.682c-7.039-2.053-14.643-0.669-20.503,3.741c-5.863,4.408-9.306,11.323-9.287,18.659
	c0.315,123.764,54.71,221.145,87.107,268.179C133.641,429.231,159.012,457.605,184.361,478.394z"/>
<g>
	<path style="fill:#679D5F;" d="M246.177,338.739c0.543-0.445,1.088-0.891,1.593-1.396c-0.509,0.509-1.055,0.954-1.6,1.401
		C246.173,338.742,246.177,338.741,246.177,338.739z"/>
	<path style="fill:#679D5F;" d="M245.041,339.62c-0.563,0.41-1.131,0.816-1.718,1.173
		C243.913,340.438,244.479,340.039,245.041,339.62z"/>
	<path style="fill:#679D5F;" d="M256.001,263.286l-24.685,24.683L256.001,263.286z"/>
</g>
<polygon style="fill:#78B86D;" points="313.595,205.691 256.001,263.286 256.001,263.286 "/>
</svg>